<svg xmlns="http://www.w3.org/2000/svg" viewBox="0 0 256 256" width="256" height="256" role="img" aria-label="AgentVerse OS">
<defs>
  <linearGradient id="s-gl" x1="0" y1="0" x2="0" y2="1"><stop offset="0" stop-color="#F4F7FF"/><stop offset="0.35" stop-color="#A2B4FF"/><stop offset="1" stop-color="#5B8CFF"/></linearGradient>
  <linearGradient id="s-gr" x1="0" y1="0" x2="0" y2="1"><stop offset="0" stop-color="#A2B4FF"/><stop offset="0.4" stop-color="#7A5CFF"/><stop offset="1" stop-color="#3B2FA8"/></linearGradient>
  <linearGradient id="s-gc" x1="0" y1="0" x2="0" y2="1"><stop offset="0" stop-color="#F4F7FF"/><stop offset="1" stop-color="#A2B4FF"/></linearGradient>
  <linearGradient id="s-gw" x1="0" y1="0" x2="0" y2="1"><stop offset="0" stop-color="#F4F7FF"/><stop offset="0.5" stop-color="#A2B4FF"/><stop offset="1" stop-color="#7A5CFF"/></linearGradient>
  <linearGradient id="s-rb" x1="0" y1="0" x2="1" y2="0"><stop offset="0" stop-color="#3B2FA8"/><stop offset="1" stop-color="#7A5CFF"/></linearGradient>
  <linearGradient id="s-rf" x1="0" y1="0" x2="1" y2="0"><stop offset="0" stop-color="#5B8CFF"/><stop offset="0.55" stop-color="#A2B4FF"/><stop offset="1" stop-color="#7A5CFF"/></linearGradient>
  <mask id="s-cut" maskUnits="userSpaceOnUse" x="-64" y="-64" width="384" height="384">
    <rect x="-64" y="-64" width="384" height="384" fill="white"/>
    <polygon points="128,132 112,228 144,228" fill="black"/>
    <g transform="rotate(-10 128 172)"><path d="M 10 172 A 118 30 0 0 0 246 172" fill="none" stroke="black" stroke-width="26" stroke-linecap="round"/></g>
  </mask>
  <mask id="s-cut2" maskUnits="userSpaceOnUse" x="-64" y="-64" width="384" height="384">
    <rect x="-64" y="-64" width="384" height="384" fill="white"/>
    <g transform="rotate(-10 128 172)"><path d="M 10 172 A 118 30 0 0 0 246 172" fill="none" stroke="black" stroke-width="26" stroke-linecap="round"/></g>
  </mask></defs>

<g mask="url(#s-cut)">
  <g transform="rotate(-10 128 172)"><path d="M 10 172 A 118 30 0 0 1 246 172" fill="none" stroke="url(#s-rb)" stroke-width="16" stroke-linecap="round" opacity="0.85"/></g>
  <polygon points="128,18 62,228 194,228" fill="url(#s-gl)"/>
</g>

<g transform="rotate(-10 128 172)"><path d="M 10 172 A 118 30 0 0 0 246 172" fill="none" stroke="url(#s-rf)" stroke-width="16" stroke-linecap="round"/></g>
</svg>
